HIERARCHY
ROOT Hips
{
	OFFSET -0.001795 -0.223333 0.028219
	CHANNELS 6 Xposition Yposition Zposition Zrotation Yrotation Xrotation 
	JOINT LeftUpLeg
	{
		OFFSET 0.069520 -0.091406 -0.006815
		CHANNELS 3 Zrotation Yrotation Xrotation
		JOINT LeftLeg
		{
			OFFSET 0.034277 -0.375199 -0.004496
			CHANNELS 3 Zrotation Yrotation Xrotation
			JOINT LeftFoot
			{
				OFFSET -0.013596 -0.397961 -0.043693
				CHANNELS 3 Zrotation Yrotation Xrotation
				JOINT LeftToe
				{
					OFFSET 0.026358 -0.055791 0.119288
					CHANNELS 3 Zrotation Yrotation Xrotation
					End Site
					{
						OFFSET 0.000000 0.000000 0.000000
					}
				}
			}
		}
	}
	JOINT RightUpLeg
	{
		OFFSET -0.067670 -0.090522 -0.004320
		CHANNELS 3 Zrotation Yrotation Xrotation
		JOINT RightLeg
		{
			OFFSET -0.038290 -0.382569 -0.008850
			CHANNELS 3 Zrotation Yrotation Xrotation
			JOINT RightFoot
			{
				OFFSET 0.015774 -0.398415 -0.042312
				CHANNELS 3 Zrotation Yrotation Xrotation
				JOINT RightToe
				{
					OFFSET -0.025372 -0.048144 0.123348
					CHANNELS 3 Zrotation Yrotation Xrotation
					End Site
					{
						OFFSET 0.000000 0.000000 0.000000
					}
				}
			}
		}
	}
	JOINT Spine
	{
		OFFSET -0.002533 0.108963 -0.026696
		CHANNELS 3 Zrotation Yrotation Xrotation
		JOINT Spine1
		{
			OFFSET 0.005487 0.135180 0.001092
			CHANNELS 3 Zrotation Yrotation Xrotation
			JOINT Spine2
			{
				OFFSET 0.001457 0.052922 0.025425
				CHANNELS 3 Zrotation Yrotation Xrotation
				JOINT Neck
				{
					OFFSET -0.002778 0.213870 -0.042857
					CHANNELS 3 Zrotation Yrotation Xrotation
					JOINT Head
					{
						OFFSET 0.005152 0.064970 0.051349
						CHANNELS 3 Zrotation Yrotation Xrotation
						End Site
						{
							OFFSET 0.000000 0.000000 0.000000
						}
					}
				}
				JOINT LeftShoulder
				{
					OFFSET 0.078845 0.121749 -0.034090
					CHANNELS 3 Zrotation Yrotation Xrotation
					JOINT LeftArm
					{
						OFFSET 0.090977 0.030469 -0.008868
						CHANNELS 3 Zrotation Yrotation Xrotation
						JOINT LeftForeArm
						{
							OFFSET 0.259612 -0.012772 -0.027456
							CHANNELS 3 Zrotation Yrotation Xrotation
							JOINT LeftHand
							{
								OFFSET 0.249234 0.008986 -0.001171
								CHANNELS 3 Zrotation Yrotation Xrotation
								End Site
								{
									OFFSET 0.000000 0.000000 0.000000
								}
							}
						}
					}
				}
				JOINT RightShoulder
				{
					OFFSET -0.081759 0.118833 -0.038615
					CHANNELS 3 Zrotation Yrotation Xrotation
					JOINT RightArm
					{
						OFFSET -0.096012 0.032551 -0.009143
						CHANNELS 3 Zrotation Yrotation Xrotation
						JOINT RightForeArm
						{
							OFFSET -0.253742 -0.013329 -0.021401
							CHANNELS 3 Zrotation Yrotation Xrotation
							JOINT RightHand
							{
								OFFSET -0.255298 0.007772 -0.005559
								CHANNELS 3 Zrotation Yrotation Xrotation
								End Site
								{
									OFFSET 0.000000 0.000000 0.000000
								}
							}
						}
					}
				}
			}
		}
	}
}
MOTION
Frames: 13
Frame Time: 0.050000
0.000000 0.955310 0.000000 -0.150244 2.184857 1.149771 4.398553 0.158507 4.881745 -1.701742 0.311779 -7.406834 3.644929 11.549714 16.120976 0.000000 0.000000 0.000000 -2.664896 -0.078902 1.719808 -0.322142 0.044112 0.208874 -7.200696 -18.170448 12.873636 0.000000 0.000000 0.000000 0.221924 -0.136589 3.139619 2.818325 0.034188 -25.499690 -1.787997 -0.746373 26.666472 0.687286 1.083996 -22.904420 0.000000 0.000000 0.000000 3.324155 0.767721 -0.109994 -6.929992 -7.975983 -1.115797 12.715910 5.459867 0.471885 0.000000 0.000000 0.000000 -9.275090 3.214121 1.045702 10.085430 9.243408 -1.178841 -10.500067 -2.863368 0.433352 0.000000 0.000000 0.000000 
0.000074 0.954455 0.001132 -0.507387 2.041546 1.574906 4.195481 0.194084 5.381279 -0.696932 0.310987 -8.952124 3.733767 11.688862 16.279115 0.000000 0.000000 0.000000 -2.329717 -0.106469 1.947389 -0.840600 0.022219 -1.499193 -6.667489 -17.281143 14.162004 0.000000 0.000000 0.000000 0.855167 -0.157803 3.029196 2.187092 0.202558 -26.164101 -1.635143 -0.677815 26.464854 -0.996817 2.199480 -24.638541 0.000000 0.000000 0.000000 2.594852 0.977281 -0.211378 -7.887025 -7.913187 -1.199971 11.821464 5.077742 0.403202 0.000000 0.000000 0.000000 -9.577140 2.013488 0.734700 11.839587 8.877066 -1.290301 -9.499063 -0.963006 0.284367 0.000000 0.000000 0.000000 
0.000031 0.952768 0.002095 -0.280703 0.938517 1.210366 3.897079 0.261451 5.855009 -0.799928 0.313408 -8.628481 4.364669 12.424571 15.955689 0.000000 0.000000 0.000000 -3.159378 -0.079579 2.110033 -0.354110 -0.055793 -2.205770 -6.305269 -16.836108 15.335011 0.000000 0.000000 0.000000 1.107731 -0.185058 3.400999 1.555779 0.367076 -27.279303 -1.188588 0.661162 28.395009 -0.550303 2.086893 -25.692131 0.000000 0.000000 0.000000 2.509713 0.909441 -0.190898 -8.587334 -9.174661 -1.282588 11.472363 6.852193 0.491799 0.000000 0.000000 0.000000 -9.161782 1.426878 0.483303 13.832005 9.791759 -1.427107 -11.121525 -2.445957 0.457801 0.000000 0.000000 0.000000 
-0.000046 0.952372 0.003016 -0.250857 1.342382 0.930996 4.012784 0.267086 6.184907 -0.960560 0.316692 -8.668926 4.156216 12.131600 15.743916 0.000000 0.000000 0.000000 -3.170928 -0.115852 2.529636 -0.532495 -0.068682 -2.862699 -6.590807 -17.345579 16.864740 0.000000 0.000000 0.000000 0.724096 -0.154142 3.104492 1.849191 0.287085 -26.739693 -1.416303 -0.037923 28.921057 -1.786727 2.775417 -26.860422 0.000000 0.000000 0.000000 1.394418 0.529163 -0.127549 -10.291559 -8.591525 -1.458073 12.914497 6.762379 0.588966 0.000000 0.000000 0.000000 -8.967737 2.761573 0.877955 14.185190 8.826327 -1.498330 -9.538338 -3.188158 0.419029 0.000000 0.000000 0.000000 
-0.000331 0.952034 0.003770 -0.042656 1.853036 0.772151 4.139465 0.255131 6.264335 -1.443747 0.325294 -8.542464 3.878014 11.747489 15.550504 0.000000 0.000000 0.000000 -3.458877 -0.130362 2.819227 -0.542933 -0.091499 -3.406997 -6.887653 -17.815934 18.249591 0.000000 0.000000 0.000000 -0.066136 -0.133735 3.349297 2.493505 0.152323 -26.708640 -1.705138 0.172156 28.380983 -1.544549 2.702330 -26.085479 0.000000 0.000000 0.000000 1.384734 -0.094815 0.094392 -12.090740 -9.221623 -1.560307 13.188627 6.001111 0.538354 0.000000 0.000000 0.000000 -8.084348 3.049220 0.938065 16.442898 7.942403 -1.691441 -9.989863 -2.267975 0.401748 0.000000 0.000000 0.000000 
-0.000526 0.952060 0.004317 0.161137 2.763112 0.965911 4.080886 0.221826 5.862305 -1.538017 0.317900 -8.385500 3.426024 11.153715 15.401225 0.000000 0.000000 0.000000 -3.773659 -0.110563 2.617971 -0.181867 -0.105990 -3.076041 -7.385706 -18.502984 18.410434 0.000000 0.000000 0.000000 -0.732985 -0.094083 2.980447 2.752826 0.091546 -26.271527 -1.759934 -0.805643 28.376691 -1.814975 2.815052 -27.134939 0.000000 0.000000 0.000000 0.568359 -0.176356 0.084334 -14.314129 -9.677620 -1.731762 14.261565 4.884004 0.515666 0.000000 0.000000 0.000000 -7.944096 3.645569 1.137771 19.131187 7.711705 -1.901932 -10.637851 -1.956540 0.411310 0.000000 0.000000 0.000000 
-0.000629 0.951617 0.004541 0.287639 2.728427 0.923209 4.130321 0.215251 5.775282 -1.859819 0.323928 -8.098692 3.464168 11.172073 15.234154 0.000000 0.000000 0.000000 -4.067580 -0.098750 2.621462 0.097509 -0.125039 -2.962465 -7.389957 -18.513312 18.182485 0.000000 0.000000 0.000000 -0.940008 -0.090170 3.087461 2.993116 0.011811 -25.708825 -1.796443 -0.846087 28.019587 -1.932938 2.866697 -26.975230 0.000000 0.000000 0.000000 -0.901814 -0.060738 -0.020287 -15.730334 -9.908769 -1.816063 14.534618 3.682064 0.425529 0.000000 0.000000 0.000000 -7.030794 4.206005 1.328122 21.188229 6.486001 -2.185654 -11.267432 -0.493392 0.337289 0.000000 0.000000 0.000000 
-0.000545 0.951069 0.004550 0.138356 2.810999 1.054802 4.212249 0.184376 5.329536 -1.712023 0.310719 -7.598637 3.531391 11.212192 14.885186 0.000000 0.000000 0.000000 -4.089324 -0.050513 1.922981 0.441184 -0.118155 -1.955924 -7.511217 -18.691526 17.900095 0.000000 0.000000 0.000000 -0.953649 -0.092040 3.164601 3.076205 0.002607 -25.887517 -1.584694 -0.526659 28.447845 -1.414781 2.624918 -26.725611 0.000000 0.000000 0.000000 -2.853225 -0.415585 0.009860 -17.054439 -10.230822 -1.903125 15.484742 2.234305 0.309796 0.000000 0.000000 0.000000 -5.774381 4.369427 1.376454 23.487852 5.600960 -2.545783 -12.232817 1.013545 0.263857 0.000000 0.000000 0.000000 
-0.000444 0.950560 0.004200 -0.002841 2.678118 1.092923 4.381736 0.167357 5.188716 -1.777770 0.311459 -7.433318 3.657227 11.344940 14.682847 0.000000 0.000000 0.000000 -4.203106 -0.030114 1.701716 0.880989 -0.152177 -1.723946 -7.456874 -18.617016 17.693824 0.000000 0.000000 0.000000 -0.962702 -0.098222 3.359668 3.193171 -0.032555 -25.745953 -1.406379 -0.537348 28.469727 -1.423339 2.625519 -27.054439 0.000000 0.000000 0.000000 -4.668173 -0.699360 0.033460 -18.921336 -10.693228 -2.001694 17.312014 0.715851 0.187829 0.000000 0.000000 0.000000 -4.540822 5.296226 1.700868 25.421399 4.292056 -2.940382 -13.061250 2.671863 0.138748 0.000000 0.000000 0.000000 
-0.000391 0.950198 0.003528 -0.193159 2.264281 1.217093 4.395845 0.169515 5.147045 -1.528196 0.307008 -7.572508 3.909609 11.673028 14.660399 0.000000 0.000000 0.000000 -4.267333 -0.010273 1.517228 1.282079 -0.193503 -1.851712 -7.235400 -18.303501 17.533885 0.000000 0.000000 0.000000 -0.919965 -0.101647 3.416028 3.162615 -0.022630 -25.944177 -1.108025 -0.044281 28.895241 -1.136610 2.501278 -26.987363 0.000000 0.000000 0.000000 -5.829408 -0.913214 0.047989 -21.331493 -11.055917 -2.140410 18.496569 -1.111372 -0.023823 0.000000 0.000000 0.000000 -2.980252 5.860951 1.929375 27.679209 3.612199 -3.329446 -13.718428 4.365140 0.001229 0.000000 0.000000 0.000000 
-0.000101 0.949663 0.002427 -0.579410 2.039651 1.258596 4.706333 0.146508 5.044255 -1.411382 0.303316 -7.550479 4.104757 11.901369 14.442886 0.000000 0.000000 0.000000 -4.134191 0.001524 1.313573 1.721172 -0.232757 -1.789074 -7.109725 -18.120633 17.414256 0.000000 0.000000 0.000000 -0.911220 -0.104258 3.472006 3.356927 -0.097806 -25.388238 -0.899470 0.337291 28.688644 -1.027813 2.488462 -27.109922 0.000000 0.000000 0.000000 -7.553275 -1.297042 0.089995 -23.474450 -11.295782 -2.237026 19.299030 -3.432819 -0.335383 0.000000 0.000000 0.000000 -1.312748 6.369723 2.171034 30.236946 3.075377 -3.723422 -13.998611 6.307925 -0.166234 0.000000 0.000000 0.000000 
0.000660 0.949363 0.000949 -0.868643 1.323288 1.336332 4.803105 0.145325 4.921231 -1.256536 0.299414 -7.448308 4.531160 12.456984 14.387731 0.000000 0.000000 0.000000 -4.013870 0.043344 0.743650 1.854504 -0.231705 -1.310619 -6.771691 -17.648789 17.176185 0.000000 0.000000 0.000000 -1.074529 -0.100325 3.565684 3.943054 -0.251205 -25.226730 -0.770877 0.582580 28.885910 -1.019121 2.457857 -27.320641 0.000000 0.000000 0.000000 -10.133891 -0.718653 -0.285275 -26.786799 -10.945935 -2.543643 19.501496 -6.640072 -0.735121 0.000000 0.000000 0.000000 1.008586 7.127331 2.550576 33.063584 3.340875 -4.024355 -13.946832 8.566344 -0.366493 0.000000 0.000000 0.000000 
0.002021 0.948458 -0.000983 -1.174511 0.957780 1.381327 4.902678 0.142014 4.869701 -1.074017 0.296410 -7.553665 4.805588 12.790451 14.113770 0.000000 0.000000 0.000000 -3.945959 0.057458 0.559024 2.104591 -0.256209 -1.397106 -6.589348 -17.384656 16.988275 0.000000 0.000000 0.000000 -1.199449 -0.100756 3.748429 4.266464 -0.357745 -24.796426 -0.579279 1.037453 28.776834 -0.909984 2.442112 -27.446387 0.000000 0.000000 0.000000 -13.314062 -0.656434 -0.571192 -29.733868 -10.558833 -2.803834 18.253896 -9.656316 -1.024616 0.000000 0.000000 0.000000 4.520091 7.911591 3.053179 36.084321 3.245509 -4.429667 -13.124202 11.377823 -0.543825 0.000000 0.000000 0.000000 
